<svg xmlns="http://www.w3.org/2000/svg" width="16" height="16" viewBox="0 0 16 16">
<path opacity="0.5" fill="white" d="M0,1c0-0.5,0.5-1,1-1h4.1c0.3,0,0.6,0.1,0.8,0.4L8.3,3H0V1z"/>
<path fill="white" d="M5,7h10V5c0-0.55-0.45-1-1-1H0v9c0,0.55,0.45,1,1,1h4V7z"/>
<rect x="6" y="10.5" opacity="0.5" fill="white" width="10" height="4.5"/>
<path fill="white" d="M16,10H6V8h10V10z M15.75,9c0-0.414-0.336-0.75-0.75-0.75S14.25,8.586,14.25,9S14.586,9.75,15,9.75
	S15.75,9.414,15.75,9z M13.75,9c0-0.414-0.336-0.75-0.75-0.75S12.25,8.586,12.25,9S12.586,9.75,13,9.75S13.75,9.414,13.75,9z
	 M11.75,9c0-0.414-0.336-0.75-0.75-0.75S10.25,8.586,10.25,9S10.586,9.75,11,9.75S11.75,9.414,11.75,9z"/>
</svg>
